<svg width="31" height="30" viewBox="0 0 31 30" fill="none" xmlns="http://www.w3.org/2000/svg">
<path d="M28.1084 4.6875H3.7334C3.21484 4.6875 2.7959 5.10645 2.7959 5.625V24.375C2.7959 24.8936 3.21484 25.3125 3.7334 25.3125H28.1084C28.627 25.3125 29.0459 24.8936 29.0459 24.375V5.625C29.0459 5.10645 28.627 4.6875 28.1084 4.6875ZM25.7412 7.87793L16.498 15.0703C16.2695 15.249 15.9502 15.249 15.7217 15.0703L6.47559 7.87793C6.44073 7.85103 6.41517 7.8139 6.40248 7.77174C6.38978 7.72958 6.3906 7.68451 6.40481 7.64284C6.41903 7.60117 6.44592 7.56499 6.48173 7.53938C6.51754 7.51376 6.56046 7.49999 6.60449 7.5H25.6123C25.6563 7.49999 25.6993 7.51376 25.7351 7.53938C25.7709 7.56499 25.7978 7.60117 25.812 7.64284C25.8262 7.68451 25.827 7.72958 25.8143 7.77174C25.8016 7.8139 25.7761 7.85103 25.7412 7.87793V7.87793Z" fill="white"/>
</svg>
