<svg width="34" height="30" viewBox="0 0 34 30" fill="none" xmlns="http://www.w3.org/2000/svg">
<path d="M27.626 3.75H7.01563C6.46901 3.75 5.94477 3.94754 5.55825 4.29917C5.17173 4.65081 4.95459 5.12772 4.95459 5.625V24.375C4.95459 24.8723 5.17173 25.3492 5.55825 25.7008C5.94477 26.0525 6.46901 26.25 7.01563 26.25H27.626C28.1727 26.25 28.6969 26.0525 29.0834 25.7008C29.4699 25.3492 29.6871 24.8723 29.6871 24.375V5.625C29.6871 5.12772 29.4699 4.65081 29.0834 4.29917C28.6969 3.94754 28.1727 3.75 27.626 3.75ZM15.2598 20.1562L10.1072 15.5091L11.7457 14.0625L15.2598 17.1994L22.8949 10.3125L24.5345 11.7909L15.2598 20.1562Z" fill="#F8F8F8"/>
</svg>
