<svg width="30" height="30" viewBox="0 0 30 30" fill="none" xmlns="http://www.w3.org/2000/svg">
<path d="M15.2275 0V2.30769C8.35845 2.30769 2.72803 8.025 2.72803 15C2.72803 21.975 8.35845 27.6923 15.2275 27.6923C22.0965 27.6923 27.7269 21.975 27.7269 15C27.7269 11.5996 26.4656 8.52692 24.2111 6.23769L22.6135 7.86115C24.4509 9.72462 25.4543 12.1685 25.4543 15C25.4543 20.7173 20.8579 25.3846 15.2275 25.3846C9.59703 25.3846 5.00065 20.7173 5.00065 15C5.00065 9.28269 9.59703 4.61538 15.2275 4.61538V6.92308L20.909 3.46154L15.2275 0ZM17.6069 7.57269L14.7661 13.3419C14.408 13.4408 14.0921 13.6568 13.8673 13.9566C13.6425 14.2564 13.5215 14.6232 13.523 15C13.523 15.459 13.7026 15.8993 14.0222 16.2238C14.3419 16.5484 14.7754 16.7308 15.2275 16.7308H15.299L18.9557 20.445L20.5897 18.7858L16.9319 15.0727V15C16.9319 14.7727 16.8683 14.55 16.7899 14.3504L19.6659 8.58115L17.6069 7.57154V7.57269Z" fill="white"/>
</svg>
